<svg width="49" height="49" viewBox="0 0 49 49" fill="none" xmlns="http://www.w3.org/2000/svg">
<circle cx="24.235" cy="24.235" r="24.235" transform="matrix(-1 0 0 1 48.9395 0.265015)" fill="#FEE4A5"/>
<path d="M35.5586 24.4999L36.2657 23.7928L36.9728 24.4999L36.2657 25.207L35.5586 24.4999ZM13.0586 25.4999C12.5063 25.4999 12.0586 25.0522 12.0586 24.4999C12.0586 23.9476 12.5063 23.4999 13.0586 23.4999V25.4999ZM27.2657 14.7928L36.2657 23.7928L34.8515 25.207L25.8515 16.207L27.2657 14.7928ZM36.2657 25.207L27.2657 34.207L25.8515 32.7928L34.8515 23.7928L36.2657 25.207ZM35.5586 25.4999H13.0586V23.4999H35.5586V25.4999Z" fill="#1E2827"/>
</svg>
