<svg width="24" height="24" viewBox="0 0 24 24" fill="none" xmlns="http://www.w3.org/2000/svg">
<path d="M6.375 22V20.717C6.37544 19.683 6.13834 18.6628 5.682 17.735L5.391 17.143C4.80515 15.9502 4.50035 14.6389 4.5 13.31V8.19C4.5 7.402 5.13 6.762 5.906 6.762C6.683 6.762 7.313 7.402 7.313 8.19M14.813 22V20.721C14.815 19.578 16.008 18.996 16.984 18.427C18.1 17.776 18.994 16.725 19.407 15.461C19.678 14.629 18.927 13.906 18.029 13.906C17.131 13.906 16.369 14.69 15.719 15.291C15.6332 15.3713 15.5405 15.4439 15.442 15.508C14.174 16.317 12.481 15.344 12.481 13.906C12.481 12.468 14.174 11.495 15.442 12.303C15.758 12.469 16.019 12.689 16.227 12.918C16.7 13.438 17.323 13.906 18.037 13.906C18.95 13.906 19.716 13.169 19.445 12.321C19.1 11.2565 18.4257 10.3292 17.5195 9.67283C16.6133 9.01644 15.522 8.66492 14.403 8.669C13.406 8.669 12.937 8.951 12.937 8.951L15.082 3.947C15.457 3.018 14.785 2 13.796 2C13.27 2 12.789 2.302 12.553 2.78L10.125 7.714M10.125 7.714L9.677 8.624M10.125 7.714V4.381C10.125 3.592 9.495 2.952 8.719 2.952C7.942 2.952 7.313 3.592 7.313 4.381V8.191V11.524" stroke="#FEE4A5" stroke-width="1.5" stroke-linecap="round" stroke-linejoin="round"/>
</svg>
