<svg width="24" height="24" viewBox="0 0 24 24" fill="none" xmlns="http://www.w3.org/2000/svg">
<path d="M16.0002 4.99995L19.0002 7.99995L17.0002 8.99995L21.0002 12.9999L18.0002 13.9999L22.0002 17.9999H13.0002M15.0002 20.9999V17.9999M8.00019 12.9999L6.00019 10.9999M8.00019 11.9999L10.0002 9.99995M8.00019 20.9999V7.99995M5.82419 15.9999C5.38666 15.9743 4.96006 15.8532 4.5744 15.645C4.18873 15.4367 3.85337 15.1466 3.5919 14.7948C3.33043 14.4431 3.1492 14.0383 3.06097 13.609C2.97274 13.1797 2.97964 12.7363 3.08119 12.3099C2.71867 12.008 2.43245 11.6249 2.24579 11.1916C2.05912 10.7583 1.97728 10.2872 2.00689 9.81631C2.03651 9.34547 2.17675 8.88825 2.41624 8.48177C2.65572 8.0753 2.98769 7.73104 3.38519 7.47695C3.03656 6.8576 2.91914 6.1346 3.05385 5.43676C3.18856 4.73891 3.56665 4.11156 4.12076 3.66648C4.67486 3.22139 5.36899 2.98749 6.07946 3.00644C6.78993 3.02539 7.4706 3.29596 8.00019 3.76995C8.5299 3.29671 9.21035 3.02678 9.92042 3.0082C10.6305 2.98962 11.3241 3.22359 11.8779 3.66848C12.4316 4.11336 12.8095 4.7403 12.9444 5.4377C13.0792 6.1351 12.9622 6.85772 12.6142 7.47695C13.0118 7.73096 13.3438 8.07515 13.5834 8.48158C13.823 8.88801 13.9633 9.34521 13.993 9.81606C14.0227 10.2869 13.941 10.7581 13.7544 11.1914C13.5678 11.6248 13.2817 12.008 12.9192 12.3099C13.0242 12.7507 13.0279 13.2096 12.9302 13.652C12.8325 14.0945 12.6358 14.5091 12.3549 14.8646C12.074 15.2202 11.7162 15.5075 11.3084 15.705C10.9006 15.9025 10.4533 16.005 10.0002 16.0049H6.00019L5.82419 15.9999Z" stroke="#FEE4A5" stroke-width="1.5" stroke-linecap="round" stroke-linejoin="round"/>
</svg>
