<svg width="32" height="33" viewBox="0 0 32 33" fill="none" xmlns="http://www.w3.org/2000/svg">
<path fill-rule="evenodd" clip-rule="evenodd" d="M12.6 22.2C13.6 22.8 14.8 23.1 16 23.1C19.7 23.1 22.6 20.1 22.6 16.6C22.6 14.8 22 13.2 20.7 11.9C19.4 10.7 17.8 10 16 10C12.4 10 9.39999 13 9.39999 16.6C9.39999 17.8 9.7 19 10.4 20.1L10.6 20.4L9.89999 22.8L12.4 22.1L12.6 22.2ZM18.2 17.5C18.4 17.5 19.4 18 19.6 18.1C19.6311 18.1156 19.6623 18.1287 19.6931 18.1417C19.8599 18.2121 20.0156 18.2779 20.1 18.7C20.2 18.7 20.2 19.1 20 19.6C19.9 20 19.1 20.5 18.7 20.5C18.6322 20.5 18.5673 20.5057 18.498 20.5119C18.1582 20.5419 17.712 20.5814 16.3 20C14.5475 19.299 13.3325 17.5999 12.9913 17.1228C12.9431 17.0554 12.9124 17.0124 12.9 17C12.883 16.966 12.8485 16.9116 12.8031 16.8399C12.5819 16.4906 12.1 15.7297 12.1 14.9C12.1 13.9 12.6 13.4 12.8 13.2C13 13 13.2 13 13.3 13H13.7C13.8 13 14 13 14.1 13.3C14.3 13.7 14.7 14.7 14.7 14.8C14.7 14.8333 14.7111 14.8667 14.7222 14.9C14.7445 14.9667 14.7667 15.0333 14.7 15.1C14.65 15.15 14.625 15.2 14.6 15.25C14.575 15.3 14.55 15.35 14.5 15.4L14.2 15.7C14.1 15.8 14 15.9 14.1 16.1C14.2 16.3 14.6 17 15.2 17.5C15.8751 18.0907 16.4078 18.3254 16.6778 18.4443C16.7278 18.4663 16.7688 18.4844 16.8 18.5C17 18.5 17.1 18.5 17.2 18.4C17.25 18.3 17.375 18.15 17.5 18C17.625 17.85 17.75 17.7 17.8 17.6C17.9 17.4 18 17.4 18.2 17.5Z" fill="#FEE4A5"/>
<path fill-rule="evenodd" clip-rule="evenodd" d="M0 16.5C0 7.66344 7.16344 0.5 16 0.5C24.8366 0.5 32 7.66344 32 16.5C32 25.3366 24.8366 32.5 16 32.5C7.16344 32.5 0 25.3366 0 16.5ZM16 8.5C18.1 8.5 20.1 9.3 21.6 10.8C23.1 12.3 24 14.3 24 16.4C24 20.8 20.4 24.4 16 24.4C14.7 24.4 13.4 24 12.2 23.4L8 24.5L9.10001 20.5C8.40001 19.3 8 17.9 8 16.5C8 12.1 11.6 8.5 16 8.5Z" fill="#FEE4A5"/>
</svg>
